<?xml version="1.0" standalone="no"?>
<!DOCTYPE svg PUBLIC "-//W3C//DTD SVG 20010904//EN"
 "http://www.w3.org/TR/2001/REC-SVG-20010904/DTD/svg10.dtd">
<svg version="1.0" xmlns="http://www.w3.org/2000/svg"
 width="320.000000pt" height="320.000000pt" viewBox="0 0 320.000000 320.000000"
 preserveAspectRatio="xMidYMid meet">

<g transform="translate(0.000000,320.000000) scale(0.100000,-0.100000)"
fill="#000000" stroke="none">
<path d="M2855 1910 c-54 -21 -64 -89 -20 -127 34 -30 66 -29 99 3 41 42 28
104 -27 124 -16 5 -30 10 -31 9 -1 0 -10 -4 -21 -9z m69 -39 c12 -13 15 -27
11 -40 -9 -29 -25 -16 -25 20 0 26 -3 29 -30 29 -28 0 -30 -2 -30 -40 0 -38
14 -54 22 -28 3 9 9 8 21 -4 15 -15 15 -17 0 -22 -26 -10 -63 21 -63 52 0 16
5 33 12 40 18 18 63 14 82 -7z"/>
<path d="M1757 1893 c-4 -3 -7 -12 -7 -19 0 -10 30 -14 123 -16 l122 -3 3
-167 2 -168 25 0 25 0 0 170 0 170 351 0 c328 0 350 1 347 18 -3 16 -36 17
-494 20 -270 1 -494 -1 -497 -5z"/>
<path d="M521 1818 c-52 -26 -76 -70 -75 -143 0 -105 47 -158 141 -159 37 -1
59 5 80 20 36 27 53 71 33 84 -26 16 -46 11 -58 -15 -26 -56 -103 -41 -123 24
-32 108 50 196 116 125 19 -20 30 -25 50 -20 34 9 32 38 -5 69 -47 40 -99 45
-159 15z"/>
<path d="M843 1821 c-55 -25 -77 -68 -77 -146 0 -81 22 -121 81 -147 122 -54
239 42 218 179 -11 75 -81 133 -160 133 -11 0 -39 -9 -62 -19z m124 -65 c25
-22 28 -31 27 -81 0 -50 -4 -61 -28 -81 -35 -31 -67 -30 -103 0 -25 21 -28 31
-28 81 0 50 3 60 28 81 36 30 68 30 104 0z"/>
<path d="M1316 1830 c-61 -19 -96 -76 -96 -157 0 -99 55 -158 149 -158 100 0
151 54 151 161 0 96 -48 151 -139 160 -20 2 -49 -1 -65 -6z m109 -75 c20 -19
25 -34 25 -77 0 -61 -17 -93 -56 -102 -66 -17 -111 37 -101 121 9 78 81 110
132 58z"/>
<path d="M2244 1830 c-42 -13 -101 -80 -109 -123 -14 -71 29 -157 91 -183 76
-32 153 -7 201 65 27 40 31 117 8 161 -34 66 -119 102 -191 80z m107 -46 c45
-23 73 -91 59 -143 -30 -111 -172 -124 -225 -21 -30 58 -10 125 48 160 39 24
78 25 118 4z"/>
<path d="M1122 1643 l3 -188 795 -3 c437 -1 805 0 818 3 12 3 22 12 22 20 0
13 -100 15 -795 15 l-795 0 0 170 0 170 -25 0 -25 0 2 -187z"/>
<path d="M1590 1675 l0 -155 35 0 35 0 0 65 c0 46 4 65 13 65 23 0 54 -29 87
-80 29 -46 35 -50 71 -50 21 0 39 3 39 6 0 3 -20 34 -43 68 l-44 62 28 17 c48
27 51 96 7 137 -19 17 -35 20 -125 20 l-103 0 0 -155z m187 79 c12 -31 -11
-49 -66 -52 l-51 -3 0 35 0 36 55 0 c42 0 57 -4 62 -16z"/>
<path d="M2517 1823 c-4 -3 -7 -73 -7 -155 0 -141 1 -148 20 -148 18 0 20 8
22 122 l3 122 68 -112 c78 -127 91 -144 112 -136 12 5 15 34 15 160 0 148 -1
154 -20 154 -20 0 -21 -4 -16 -127 6 -148 13 -150 -92 20 -61 98 -85 121 -105
100z"/>
<path d="M717 1344 c-11 -11 -9 -102 3 -109 6 -4 10 11 10 37 l0 43 20 -25 20
-25 20 24 20 23 0 -41 c0 -23 5 -41 10 -41 6 0 10 27 10 60 0 33 -4 60 -9 60
-5 0 -19 -12 -30 -27 l-20 -28 -23 28 c-13 16 -27 25 -31 21z"/>
<path d="M873 1295 c-15 -30 -23 -58 -19 -62 4 -4 12 0 17 10 13 22 65 23 73
1 4 -9 9 -14 12 -11 8 8 -37 117 -48 117 -4 0 -20 -25 -35 -55z m47 -1 c0 -8
-7 -14 -15 -14 -17 0 -18 2 -9 24 7 18 24 12 24 -10z"/>
<path d="M988 1344 c-12 -11 -10 -102 2 -109 6 -3 10 0 10 8 0 8 6 20 14 26
12 10 18 7 31 -13 10 -14 24 -26 32 -26 11 0 7 9 -11 31 -20 24 -24 35 -16 49
5 10 15 20 22 23 7 2 10 8 5 12 -4 5 -23 -6 -41 -24 l-35 -34 -3 33 c-2 17 -6
28 -10 24z"/>
<path d="M1100 1290 l0 -60 46 0 c27 0 43 4 39 10 -3 6 -19 10 -36 10 -19 0
-29 5 -29 15 0 10 10 15 30 15 17 0 30 5 30 10 0 6 -13 10 -30 10 -20 0 -30 5
-30 15 0 10 11 15 35 15 19 0 35 5 35 10 0 6 -20 10 -45 10 l-45 0 0 -60z"/>
<path d="M1260 1302 c0 -54 12 -72 50 -72 38 0 50 18 50 72 0 62 -18 63 -22 1
-3 -44 -5 -48 -28 -48 -23 0 -25 4 -28 48 -4 62 -22 61 -22 -1z"/>
<path d="M1380 1290 c0 -33 4 -60 10 -60 6 0 10 9 10 20 0 15 7 20 24 20 24 0
56 23 56 40 0 20 -34 40 -66 40 l-34 0 0 -60z m75 20 c0 -9 -11 -16 -27 -18
-23 -3 -28 1 -28 18 0 17 5 21 28 18 16 -2 27 -9 27 -18z"/>
<path d="M1540 1290 c0 -67 17 -82 22 -19 l3 41 30 -41 c17 -22 33 -41 38 -41
4 0 7 28 7 62 0 63 -8 76 -12 20 -1 -18 -5 -32 -9 -32 -4 0 -19 16 -33 35 -15
19 -31 35 -37 35 -5 0 -9 -27 -9 -60z"/>
<path d="M1670 1290 l0 -60 45 0 c25 0 45 5 45 10 0 6 -16 10 -35 10 -24 0
-35 5 -35 15 0 10 10 15 30 15 17 0 30 5 30 10 0 6 -13 10 -30 10 -20 0 -30 5
-30 15 0 10 11 15 35 15 19 0 35 5 35 10 0 6 -20 10 -45 10 l-45 0 0 -60z"/>
<path d="M1774 1334 c5 -11 15 -38 23 -62 18 -50 32 -50 49 -1 l12 34 11 -28
c6 -16 11 -33 11 -38 0 -22 21 -6 35 28 23 55 29 83 16 83 -6 0 -11 -6 -11
-12 -1 -7 -7 -26 -14 -43 l-13 -30 -12 43 c-14 49 -31 51 -45 4 -5 -18 -12
-32 -16 -32 -4 0 -11 14 -16 32 -5 17 -16 34 -23 36 -10 3 -12 0 -7 -14z"/>
<path d="M2000 1344 c0 -3 9 -19 21 -35 18 -26 26 -44 28 -72 1 -5 6 -5 12 -2
6 4 8 13 5 20 -2 7 7 29 21 50 30 44 21 62 -11 22 l-23 -28 -17 25 c-15 24
-36 35 -36 20z"/>
<path d="M2136 1328 c-34 -48 -7 -98 52 -98 39 0 66 35 56 74 -12 48 -81 63
-108 24z m82 -32 c6 -48 -50 -65 -70 -21 -14 32 5 57 41 53 20 -2 27 -9 29
-32z"/>
<path d="M2269 1348 c-1 -2 -3 -29 -4 -60 -2 -44 0 -58 11 -58 8 0 14 9 14 20
0 11 6 20 13 20 7 0 18 -9 25 -20 16 -25 31 -26 29 -1 0 11 -5 17 -9 15 -12
-8 -10 10 3 23 6 6 9 21 7 34 -2 20 -10 24 -45 27 -24 2 -44 2 -44 0z m69 -35
c-4 -22 -38 -30 -49 -12 -11 19 -2 29 27 29 19 0 25 -5 22 -17z"/>
<path d="M2380 1291 c0 -65 10 -77 29 -35 l12 27 23 -32 c14 -19 27 -28 31
-22 3 6 -3 24 -14 39 l-20 29 21 21 c33 33 12 39 -22 7 -17 -16 -31 -25 -31
-19 -1 5 -2 15 -3 23 0 8 -7 16 -13 18 -10 4 -13 -12 -13 -56z"/>
<path d="M2700 1050 c0 -5 5 -10 10 -10 6 0 10 5 10 10 0 6 -4 10 -10 10 -5 0
-10 -4 -10 -10z"/>
<path d="M2687 1010 c-9 -11 -24 -20 -32 -20 -8 0 -15 -4 -15 -9 0 -5 -8 -12
-17 -14 -16 -4 -16 -5 0 -6 22 -1 18 -20 -6 -35 -12 -8 -23 -7 -37 2 -14 8
-37 10 -70 6 -41 -5 -50 -4 -50 9 0 22 -30 30 -37 9 -7 -18 -53 -62 -65 -62
-18 0 -38 14 -38 27 0 13 -3 13 -15 3 -19 -16 -3 -40 26 -40 11 0 19 -4 19
-10 0 -5 -7 -10 -15 -10 -8 0 -15 -8 -15 -18 0 -30 -74 -56 -82 -30 -3 9 -6 9
-12 0 -4 -7 -2 -12 3 -12 6 0 11 -9 11 -19 0 -15 -10 -21 -39 -26 -22 -4 -42
-13 -45 -21 -3 -8 -1 -14 4 -14 6 0 10 -5 10 -11 0 -8 -14 -10 -45 -6 -53 8
-62 -9 -10 -19 19 -3 35 -10 35 -14 0 -5 -16 -14 -35 -21 -33 -12 -35 -16 -35
-57 0 -35 4 -45 20 -49 11 -3 20 -13 20 -23 0 -10 -9 -20 -20 -23 -13 -3 -20
0 -20 10 0 19 -24 11 -28 -9 -4 -20 33 -29 66 -17 14 5 31 8 38 5 7 -3 15 2
18 10 7 19 36 18 36 -1 0 -8 -7 -15 -16 -15 -14 0 -14 -3 -4 -15 7 -8 26 -15
42 -15 16 0 41 -9 56 -20 33 -25 66 -18 57 11 -5 15 -1 19 15 19 17 0 21 -4
16 -17 -9 -24 13 -33 35 -15 17 15 17 18 4 39 -15 23 -15 23 25 23 l40 0 -16
-25 c-9 -14 -15 -25 -13 -26 2 0 28 -2 57 -3 48 -3 53 -1 58 21 4 12 3 31 -1
40 -6 17 -7 17 -21 -1 -7 -11 -16 -17 -19 -14 -3 3 1 11 10 18 8 7 15 19 15
27 0 8 4 12 9 8 5 -3 13 -1 16 5 4 6 15 8 25 5 10 -3 22 -1 25 6 6 8 9 8 15
-1 12 -20 30 -2 30 30 0 47 10 60 44 60 17 0 42 9 56 20 l25 19 -22 23 c-20
22 -20 25 -6 61 8 20 19 37 24 37 5 0 9 10 9 23 0 29 19 54 45 60 19 4 19 4 1
12 -12 5 -21 3 -26 -6 -5 -7 -12 -10 -17 -6 -4 4 -2 17 5 27 7 11 12 27 12 35
0 23 -18 18 -23 -7 l-4 -23 -8 23 c-5 16 -15 22 -35 22 -16 0 -30 -6 -33 -12
-3 -9 -10 -7 -21 7 -21 27 -20 35 4 35 13 0 20 7 20 20 0 11 -3 20 -8 20 -4 0
-15 -9 -25 -20z m-242 -140 c-3 -5 -10 -10 -16 -10 -5 0 -9 5 -9 10 0 6 7 10
16 10 8 0 12 -4 9 -10z m-280 -310 c-3 -5 -14 -10 -23 -9 -14 0 -13 2 3 9 27
11 27 11 20 0z"/>
<path d="M2200 400 c0 -13 11 -13 30 0 12 8 11 10 -7 10 -13 0 -23 -4 -23 -10z"/>
</g>
</svg>
